<svg width="59" height="56" viewBox="0 0 59 56" fill="none" xmlns="http://www.w3.org/2000/svg">
<path d="M46.7214 18.0892V20.4378C52.5874 23.8517 56.3244 28.971 56.3244 34.6845C56.3244 41.2169 51.4397 46.9722 44.0709 50.2892V33.0645L36.1217 30.0284V52.7066C35.2551 52.8596 34.3713 52.9834 33.4737 53.076V18.1005L25.5263 15.0627V53.0754C24.6278 52.9828 23.744 52.859 22.8766 52.706V3.16649L14.9291 0.129822V50.2898C7.55942 46.9722 2.67559 41.2163 2.67559 34.6845C2.67559 28.971 6.41175 23.8517 12.2794 20.4378V18.0892C4.84761 21.8061 0 27.8597 0 34.6845C0 45.9608 13.2339 55.1353 29.4996 55.1353C45.7661 55.1353 59 45.9608 59 34.6845C58.9991 27.8597 54.1515 21.8061 46.7214 18.0892Z" fill="#66FCF1"/>
</svg>
